<?xml version="1.0" encoding="UTF-8"?>
<svg version="1.1" xmlns="http://www.w3.org/2000/svg" width="197" height="165">
<path d="M0 0 C1.64128113 1.06410217 1.64128113 1.06410217 3 3 C3.30625903 5.52911334 3.43047302 7.81465304 3.41992188 10.34545898 C3.42839142 11.09049683 3.43686096 11.83553467 3.44558716 12.60314941 C3.46899919 15.06763751 3.46997836 17.53150283 3.46875 19.99609375 C3.47584914 21.70858511 3.48354777 23.42107409 3.49182129 25.13356018 C3.50527578 28.72395437 3.5068306 32.31412865 3.50097656 35.90454102 C3.49507987 40.50619732 3.52566538 45.10679877 3.56609344 49.708251 C3.59194056 53.24532254 3.59485061 56.7821391 3.59120178 60.31929207 C3.59289589 62.01578485 3.60256641 63.71228904 3.62034607 65.4086895 C3.64247812 67.78156018 3.63286589 70.15228329 3.61523438 72.52514648 C3.62849762 73.22605911 3.64176086 73.92697174 3.65542603 74.64912415 C3.59420308 78.19427902 3.27135632 79.71349573 0.80123901 82.32150269 C-1.91397732 83.94845537 -4.47876632 85.20554012 -7.43505859 86.33081055 C-8.50162689 86.74191574 -9.56819519 87.15302094 -10.66708374 87.57658386 C-11.81593048 88.00892838 -12.96477722 88.44127289 -14.1484375 88.88671875 C-15.35198883 89.34802689 -16.55554016 89.80933502 -17.79556274 90.28462219 C-21.00262226 91.51385302 -24.21365202 92.73235299 -27.42572021 93.94842529 C-31.23473075 95.39262195 -35.03908601 96.84902231 -38.84395218 98.30409431 C-41.95576197 99.49372998 -45.06888737 100.67954568 -48.18426514 101.85983276 C-54.07320173 104.09423961 -59.94025135 106.36477207 -65.77050781 108.74853516 C-66.82178864 109.17463577 -67.87306946 109.60073639 -68.95620728 110.03974915 C-70.91001652 110.83527135 -72.85913462 111.64245717 -74.80233765 112.46354675 C-83.07126231 115.81612955 -83.07126231 115.81612955 -88 114 C-90.49388754 110.25916869 -90.25337275 108.30969227 -90.25878906 103.83813477 C-90.2622937 103.11260406 -90.26579834 102.38707336 -90.26940918 101.63955688 C-90.2782149 99.24007613 -90.27238091 96.84089003 -90.265625 94.44140625 C-90.26697213 92.77375736 -90.26891307 91.10610885 -90.27142334 89.4384613 C-90.27437315 85.94225325 -90.27008212 82.44614736 -90.26074219 78.94995117 C-90.24935654 74.46969993 -90.25590234 69.98968855 -90.26788712 65.50944614 C-90.27511712 62.06506038 -90.27281239 58.6207314 -90.26763153 55.17634392 C-90.26629773 53.52453521 -90.26793331 51.87272134 -90.27259064 50.22091866 C-90.27767364 47.9108937 -90.26992049 45.60125592 -90.25878906 43.29125977 C-90.25719788 41.97682388 -90.25560669 40.662388 -90.25396729 39.30812073 C-90.01576361 36.20533328 -89.80653569 34.49732635 -88 32 C-85.41586169 30.70878083 -82.97417448 29.66509461 -80.27734375 28.671875 C-79.48065277 28.36542053 -78.68396179 28.05896606 -77.86312866 27.7432251 C-75.2261104 26.73219751 -72.5820965 25.74101715 -69.9375 24.75 C-68.10324468 24.05213359 -66.26951055 23.35289587 -64.4362793 22.65234375 C-61.57410483 21.55894446 -58.71150406 20.46680656 -55.84681702 19.38000488 C-48.99528895 16.77808225 -42.17519133 14.10420187 -35.3671875 11.390625 C-33.49494167 10.64728807 -31.62262824 9.90412139 -29.75024414 9.16113281 C-27.04425559 8.08723741 -24.33944544 7.01082947 -21.63815308 5.9251709 C-19.13349031 4.91984886 -16.6240812 3.92737485 -14.11328125 2.9375 C-13.37749847 2.63829651 -12.6417157 2.33909302 -11.88363647 2.03082275 C-7.79692226 0.43486317 -4.38843107 -0.60756127 0 0 Z " fill="#18BFFF" transform="translate(194,50)"/>
<path d="M0 0 C0.72412582 0.26782288 1.44825165 0.53564575 2.19432068 0.81158447 C10.78502922 4.03399935 19.22559001 7.62776753 27.66015625 11.234375 C30.16031875 12.29716142 32.661156 13.35834956 35.16200256 14.41952515 C36.81212104 15.11992591 38.46197606 15.82094772 40.11155701 16.52261353 C48.12657869 19.930033 56.17087793 23.26533978 64.23071289 26.56542969 C65.54736938 27.10925293 65.54736938 27.10925293 66.890625 27.6640625 C67.63852295 27.97069824 68.3864209 28.27733398 69.15698242 28.59326172 C71.09765625 29.484375 71.09765625 29.484375 74.09765625 31.484375 C74.28515625 35.109375 74.28515625 35.109375 74.09765625 38.484375 C66.21171666 42.7416744 58.02134563 45.97089081 49.66720581 49.16104126 C45.68830402 50.68058002 41.71555379 52.21605797 37.7421875 53.75 C36.53611595 54.21494621 36.53611595 54.21494621 35.30567932 54.68928528 C25.90331701 58.3200221 16.5515549 62.07557208 7.20214844 65.84008789 C6.04231445 66.30664795 4.88248047 66.77320801 3.6875 67.25390625 C2.67550537 67.66229736 1.66351074 68.07068848 0.62084961 68.49145508 C-11.21148886 73.14768348 -22.26169874 70.41524794 -33.52734375 65.609375 C-34.81374501 65.08291642 -36.10122216 64.5590807 -37.38964844 64.03759766 C-40.25935689 62.87242099 -43.12272589 61.69303694 -45.98339844 60.50585938 C-51.57178589 58.19676972 -57.19363302 55.97374789 -62.81640625 53.75 C-79.44537355 47.16125067 -79.44537355 47.16125067 -86.85546875 44.1953125 C-87.72595856 43.84994446 -88.59644836 43.50457642 -89.49331665 43.14874268 C-90.29506317 42.82685974 -91.09680969 42.50497681 -91.92285156 42.17333984 C-92.62210754 41.89420746 -93.32136353 41.61507507 -94.04180908 41.32748413 C-95.90234375 40.484375 -95.90234375 40.484375 -98.90234375 38.484375 C-99.08984375 34.859375 -99.08984375 34.859375 -98.90234375 31.484375 C-87.76816066 25.51709317 -76.07909155 20.88810185 -64.40234375 16.109375 C-62.40999495 15.28945433 -60.41780645 14.46914405 -58.42578125 13.6484375 C-48.85941395 9.71219823 -39.27917923 5.80979099 -29.68359375 1.9453125 C-28.85388062 1.60923981 -28.02416748 1.27316711 -27.16931152 0.9269104 C-26.01719177 0.46494766 -26.01719177 0.46494766 -24.84179688 -0.00634766 C-24.17442505 -0.27500641 -23.50705322 -0.54366516 -22.81945801 -0.82046509 C-14.94098861 -3.67725679 -7.70456054 -2.97566888 0 0 Z " fill="#FCB400" transform="translate(110.90234375,2.515625)"/>
<path d="M0 0 C4.88341613 1.03763992 9.47556027 2.98680858 14.08666992 4.85888672 C15.06770187 5.24989059 16.04873383 5.64089447 17.05949402 6.04374695 C20.23424748 7.31086545 23.40461257 8.58857973 26.57495117 9.86669922 C28.74864539 10.73715071 30.92263732 11.60685911 33.09692383 12.47583008 C36.33838615 13.77149497 39.57959366 15.06775954 42.81958008 16.36711121 C48.9379892 18.81993011 55.06510718 21.2470369 61.21166992 23.62841797 C61.87964096 23.88770081 62.547612 24.14698364 63.23582458 24.41412354 C66.21868686 25.57121039 69.20338366 26.72318723 72.19091797 27.86816406 C73.2019458 28.26084473 74.21297363 28.65352539 75.25463867 29.05810547 C76.1117041 29.3875415 76.96876953 29.71697754 77.85180664 30.05639648 C79.88745117 30.99169922 79.88745117 30.99169922 81.88745117 32.99169922 C82.32495117 35.86669922 82.32495117 35.86669922 81.88745117 38.99169922 C77.64515104 43.20786608 72.24046817 45.38594356 66.88745117 47.86669922 C64.81418179 48.84251266 62.74128269 49.81911313 60.66870117 50.79638672 C59.56913086 51.31297852 58.46956055 51.82957031 57.33666992 52.36181641 C51.95136246 54.9065724 46.59151233 57.50346183 41.23098755 60.09985352 C39.38887318 60.99101129 37.54549662 61.8795012 35.70166016 62.76708984 C29.83412478 65.59259151 23.97679674 68.43614859 18.14135742 71.32763672 C17.09334961 71.84197266 16.0453418 72.35630859 14.96557617 72.88623047 C13.01166038 73.84547151 11.06211153 74.81368055 9.11791992 75.79248047 C0.71993224 79.89179493 0.71993224 79.89179493 -4.11254883 78.99169922 C-5.74720764 77.89231873 -5.74720764 77.89231873 -7.11254883 75.99169922 C-7.50022888 72.92445374 -7.50022888 72.92445374 -7.51660156 69.10522461 C-7.52346481 68.40895462 -7.53032806 67.71268463 -7.53739929 66.99531555 C-7.55570435 64.69312155 -7.55182467 62.39160665 -7.54614258 60.08935547 C-7.55070282 58.48896563 -7.55600792 56.88857776 -7.56202698 55.28819275 C-7.57096547 51.93317716 -7.56852692 48.57839951 -7.55859375 45.22338867 C-7.54710623 40.92451293 -7.56730773 36.62645885 -7.59651089 32.32769108 C-7.61486077 29.02224004 -7.61458285 25.71698631 -7.60887337 22.41149712 C-7.60871998 20.82666306 -7.61477835 19.24181577 -7.62716484 17.65703011 C-7.64205015 15.4400194 -7.63141803 13.22453152 -7.61425781 11.00756836 C-7.61409164 9.74642715 -7.61392548 8.48528595 -7.61375427 7.18592834 C-7.11254883 3.99169922 -7.11254883 3.99169922 -5.27572632 1.5526886 C-3.11254883 -0.00830078 -3.11254883 -0.00830078 0 0 Z " fill="#F72A5F" transform="translate(7.112548828125,50.00830078125)"/>
<path d="M0 0 C2.65404259 0.99786303 5.28313925 2.04526504 7.91030884 3.11187744 C8.89134079 3.50288132 9.87237274 3.89388519 10.88313293 4.29673767 C14.05788639 5.56385617 17.22825149 6.84157045 20.39859009 8.11968994 C22.57228431 8.99014143 24.74627624 9.85984983 26.92056274 10.7288208 C30.16202507 12.02448569 33.40323257 13.32075026 36.64321899 14.62010193 C42.76162812 17.07292083 48.8887461 19.50002762 55.03530884 21.88140869 C55.70327988 22.14069153 56.37125092 22.39997437 57.0594635 22.66711426 C60.04232578 23.82420111 63.02702257 24.97617795 66.01455688 26.12115479 C67.02558472 26.51383545 68.03661255 26.90651611 69.07827759 27.31109619 C69.93534302 27.64053223 70.79240845 27.96996826 71.67544556 28.30938721 C73.71109009 29.24468994 73.71109009 29.24468994 75.71109009 31.24468994 C76.14859009 34.11968994 76.14859009 34.11968994 75.71109009 37.24468994 C71.34646119 41.572871 65.67375235 44.01848462 60.21109009 46.68218994 C59.27394165 47.16623291 58.33679321 47.65027588 57.37124634 48.14898682 C50.51268348 51.49071212 50.51268348 51.49071212 47.00015259 50.41265869 C46.24476196 49.697229 45.48937134 48.98179932 44.71109009 48.24468994 C43.58510468 47.30264755 42.45733665 46.36273379 41.32827759 45.42437744 C40.07793658 44.32615903 38.83067176 43.22443098 37.58609009 42.11968994 C33.18304438 38.25474681 28.76948582 34.4269976 24.21109009 30.74468994 C19.79439571 27.16927068 15.49336382 23.47861394 11.21109009 19.74468994 C1.10124333 10.82107283 1.10124333 10.82107283 -9.58969116 2.62750244 C-10.15043335 2.17117432 -10.71117554 1.71484619 -11.28890991 1.24468994 C-11.28890991 0.58468994 -11.28890991 -0.07531006 -11.28890991 -0.75531006 C-7.64721783 -2.5761561 -3.70691868 -1.22323424 0 0 Z " fill="#BA1E45" transform="translate(13.288909912109375,51.75531005859375)"/>
</svg>
